<?xml version="1.0" standalone="no"?>
<!DOCTYPE svg PUBLIC "-//W3C//DTD SVG 20010904//EN"
 "http://www.w3.org/TR/2001/REC-SVG-20010904/DTD/svg10.dtd">
<svg version="1.0" xmlns="http://www.w3.org/2000/svg"
 width="500.000000pt" height="688.000000pt" viewBox="0 0 500.000000 688.000000"
 preserveAspectRatio="xMidYMid meet">

<g transform="translate(0.000000,688.000000) scale(0.100000,-0.100000)"
fill="#000000" stroke="none">
<path d="M2400 6746 c0 -149 -4 -164 -53 -229 -48 -63 -58 -116 -55 -295 l3
-154 -60 -54 c-44 -39 -78 -60 -130 -77 -57 -20 -82 -36 -136 -88 -37 -35 -76
-82 -87 -105 -11 -22 -36 -59 -56 -83 -21 -24 -42 -66 -51 -99 -28 -98 -32
-101 -201 -133 -116 -23 -157 -35 -187 -57 -22 -15 -62 -39 -89 -54 -64 -35
-76 -45 -161 -147 -50 -60 -75 -99 -87 -140 -27 -86 -41 -111 -62 -111 -29 0
-49 61 -55 167 l-6 93 42 38 c22 20 41 43 41 50 0 6 -15 29 -34 49 -20 23 -40
61 -50 95 -9 32 -30 74 -47 93 -17 19 -40 62 -50 95 -23 74 -35 98 -65 130
-13 14 -33 56 -44 93 -15 48 -31 76 -55 98 -45 42 -51 73 -25 140 29 71 23
134 -15 166 -35 30 -91 30 -136 0 -31 -21 -34 -27 -37 -80 -3 -50 1 -62 22
-88 37 -43 34 -83 -9 -130 -19 -22 -35 -45 -35 -52 0 -34 -24 -90 -55 -127
-21 -26 -43 -68 -55 -111 -13 -41 -33 -84 -51 -104 -18 -20 -39 -63 -51 -101
-13 -45 -30 -77 -54 -100 -23 -24 -34 -44 -34 -64 0 -29 9 -41 55 -74 20 -14
20 -24 17 -443 -2 -235 -8 -446 -13 -468 -5 -22 -9 -119 -9 -215 l0 -175 -62
-58 c-35 -32 -75 -61 -90 -64 l-28 -5 0 -643 0 -642 408 -7 c424 -7 607 1 658
27 66 34 65 31 60 278 -3 180 -7 232 -21 264 -14 35 -16 80 -14 355 2 237 -1
321 -10 339 -19 34 -16 685 4 761 17 70 42 207 50 285 8 67 31 128 68 177 13
18 29 49 36 68 7 20 42 63 87 107 74 71 79 74 192 110 104 34 128 38 221 38
99 0 105 1 122 25 11 14 24 52 29 85 6 33 26 92 44 130 19 39 42 89 51 112 23
55 159 176 224 199 25 9 73 28 106 42 42 19 83 27 136 30 66 3 89 -1 185 -32
103 -35 184 -76 184 -94 0 -5 18 -18 40 -31 29 -16 49 -39 71 -79 16 -31 43
-77 59 -102 24 -36 32 -66 45 -155 19 -139 29 -151 100 -129 69 22 169 12 254
-25 36 -16 82 -34 102 -40 38 -12 140 -93 167 -132 8 -13 32 -42 52 -64 27
-30 41 -59 54 -110 9 -39 29 -89 42 -113 55 -93 57 -154 50 -1259 l-6 -1003
28 -30 27 -31 135 -5 c74 -2 288 -1 475 2 l340 7 34 34 34 34 -7 287 c-4 158
-11 429 -14 602 -5 201 -12 325 -19 341 -6 15 -25 36 -42 49 -60 42 -55 -18
-66 833 l-7 498 28 55 c24 48 26 58 15 76 -7 12 -21 45 -31 73 -10 29 -34 73
-53 98 -19 25 -40 69 -47 97 -7 28 -28 72 -47 97 -38 50 -48 69 -63 130 -6 23
-26 60 -44 82 -53 63 -61 99 -46 196 21 138 -1 185 -87 185 -61 0 -91 -17
-103 -59 -11 -40 -4 -103 16 -143 19 -37 18 -61 -5 -100 -11 -18 -24 -52 -31
-76 -6 -23 -25 -58 -42 -78 -17 -19 -41 -66 -54 -104 -12 -38 -36 -87 -54
-108 -17 -21 -39 -67 -50 -101 -10 -34 -36 -85 -58 -114 -22 -29 -42 -63 -45
-76 -8 -31 13 -79 47 -110 23 -22 26 -32 26 -97 0 -77 -12 -124 -31 -124 -6 0
-26 12 -45 28 -18 15 -47 37 -63 50 -20 15 -38 45 -52 84 -17 46 -31 66 -56
80 -18 11 -42 35 -54 54 -11 19 -40 44 -63 56 -22 11 -56 33 -74 49 -40 35
-111 56 -222 65 -47 4 -94 10 -106 15 -25 9 -129 162 -152 222 -20 53 -42 84
-130 178 -59 63 -82 80 -131 98 -61 22 -126 69 -165 119 -19 24 -21 37 -18
151 l3 123 -34 57 c-19 31 -42 80 -51 109 -8 29 -27 67 -41 83 -20 24 -25 42
-25 82 0 29 -3 89 -7 135 l-6 82 -58 0 -59 0 0 -134z m-1771 -1764 c40 -39 51
-118 51 -351 0 -147 -3 -199 -14 -220 -26 -50 -98 -65 -162 -35 -59 28 -60 30
-57 284 1 127 4 244 8 259 6 28 47 74 75 84 37 13 72 6 99 -21z m3839 4 c25
-25 32 -91 32 -334 l0 -243 -25 -24 c-27 -28 -73 -32 -138 -14 -68 18 -69 27
-65 306 3 150 8 258 15 274 22 51 142 74 181 35z m-3821 -1342 c22 -15 47 -38
56 -53 22 -37 31 -95 18 -119 -14 -27 -130 -104 -156 -104 -33 -1 -131 60
-143 88 -18 37 -15 145 3 172 19 26 62 40 130 41 39 1 61 -5 92 -25z m3841 -1
c38 -28 64 -78 66 -123 1 -35 -6 -46 -54 -95 -30 -31 -65 -58 -77 -61 -56 -14
-155 51 -172 112 -17 63 5 154 42 172 56 28 154 25 195 -5z m-3632 -360 c67
-72 65 -60 66 -306 2 -249 2 -249 -61 -267 -61 -17 -107 -12 -137 14 l-28 23
1 229 c1 211 3 233 23 279 24 56 34 65 73 65 20 0 39 -11 63 -37z m3817 25 c9
-7 28 -39 42 -71 24 -56 25 -65 25 -266 0 -195 -1 -210 -20 -234 -37 -46 -134
-48 -186 -4 l-26 23 0 216 1 216 36 49 c59 79 64 83 88 83 13 0 31 -6 40 -12z
m-4284 -19 c33 -36 41 -99 41 -322 0 -204 -1 -216 -22 -242 -20 -26 -24 -27
-96 -23 -116 6 -114 0 -110 282 4 295 15 324 125 325 31 1 48 -5 62 -20z
m3818 -15 c60 -46 63 -60 63 -299 0 -122 -4 -224 -10 -235 -13 -24 -62 -40
-122 -40 -39 0 -54 5 -73 25 l-25 24 0 223 c0 214 1 225 24 274 13 29 30 54
37 57 24 11 71 -2 106 -29z"/>
<path d="M1454 6655 c-8 -32 7 -50 68 -81 26 -13 48 -28 48 -33 0 -5 22 -32
49 -60 47 -49 50 -54 67 -148 15 -83 15 -107 5 -176 -16 -104 -40 -154 -99
-202 -26 -22 -55 -50 -65 -62 -27 -34 -66 -51 -143 -63 -121 -19 -158 -46 -92
-69 90 -32 215 -21 273 23 16 13 62 39 101 59 48 24 74 44 83 63 7 15 32 58
57 94 49 73 64 131 64 244 -1 95 -15 154 -49 196 -16 20 -38 54 -50 78 -12 23
-25 42 -30 42 -5 0 -31 20 -59 45 -57 51 -114 75 -178 75 -38 0 -44 -3 -50
-25z"/>
<path d="M3461 6510 c-14 -37 -32 -67 -47 -77 -23 -15 -28 -14 -64 2 -44 20
-86 23 -102 7 -20 -20 1 -61 42 -82 66 -34 53 -83 -32 -119 -78 -33 -75 -79 7
-100 72 -18 85 -38 85 -125 0 -82 12 -126 33 -126 8 0 28 27 46 59 40 75 59
82 113 42 23 -17 52 -31 63 -31 25 0 49 -23 64 -63 7 -19 17 -27 28 -25 26 5
27 34 4 79 -36 69 -23 148 28 168 14 5 45 15 67 21 76 19 85 63 19 94 -87 40
-100 85 -39 140 23 21 35 40 32 52 -3 17 -13 19 -94 20 -50 1 -100 7 -113 13
-12 7 -36 34 -52 62 -42 67 -61 65 -88 -11z"/>
<path d="M3170 4903 c-25 -9 -70 -56 -70 -72 1 -9 9 -32 19 -51 19 -34 19 -35
-6 -83 l-26 -48 33 -52 c37 -59 49 -130 30 -176 -7 -18 -29 -38 -56 -53 -49
-25 -60 -48 -50 -107 5 -35 4 -38 -29 -50 -23 -8 -49 -31 -76 -67 -32 -44 -45
-54 -69 -54 -24 0 -34 8 -60 53 -17 28 -41 68 -53 87 -18 28 -22 51 -23 116
-1 45 -4 86 -7 91 -4 6 -33 20 -65 32 -32 11 -67 30 -77 41 -36 40 -77 14 -91
-57 -5 -27 0 -38 39 -80 48 -51 67 -85 87 -148 7 -22 23 -56 37 -77 13 -20 38
-69 54 -108 16 -40 41 -86 55 -103 23 -27 25 -37 20 -76 -7 -51 -53 -147 -97
-203 -16 -20 -29 -42 -29 -49 0 -6 15 -28 33 -48 60 -66 96 -264 63 -343 -12
-27 -12 -39 -3 -55 7 -11 20 -34 29 -51 13 -22 21 -84 34 -250 l17 -221 -32
-50 c-47 -73 -41 -86 39 -86 59 0 70 4 119 38 29 20 62 37 73 37 29 0 57 18
118 74 69 63 79 81 80 132 0 38 -27 84 -50 84 -16 0 -48 -50 -55 -87 -8 -47
-21 -63 -49 -63 -49 1 -51 8 -54 197 -2 98 -5 208 -5 245 -2 61 1 69 27 97
l28 30 -21 29 c-39 56 -22 112 41 127 35 9 68 41 68 66 0 68 -62 89 -187 63
-18 -3 -24 -14 -30 -46 -8 -54 -41 -88 -86 -88 -42 0 -57 15 -57 57 0 48 26
69 98 77 33 4 62 11 64 16 2 5 47 10 101 11 89 1 100 -1 122 -21 15 -14 45
-26 76 -31 61 -10 79 -23 79 -57 0 -50 -40 -112 -101 -156 -32 -22 -58 -45
-58 -50 -1 -5 15 -27 35 -49 l37 -40 -7 -76 c-4 -42 -9 -95 -12 -118 -6 -40
-4 -44 43 -90 33 -32 56 -65 67 -98 10 -27 27 -74 38 -103 15 -39 19 -66 15
-97 -6 -40 -2 -49 37 -107 35 -51 49 -64 74 -66 44 -4 53 20 62 162 6 100 11
129 31 166 22 41 24 57 24 180 1 121 3 139 24 177 15 28 21 54 19 79 -3 34 -7
39 -35 45 -35 7 -63 25 -63 41 0 5 16 24 35 41 34 30 35 33 35 104 0 62 -5 83
-29 131 -26 51 -28 62 -21 112 4 30 18 90 31 133 l22 78 -21 52 c-26 63 -27
80 -6 112 27 42 15 121 -32 202 -34 60 -46 71 -95 95 -43 20 -59 34 -69 60 -8
18 -29 50 -47 71 -43 49 -44 88 -3 117 38 27 38 50 0 93 -28 33 -30 38 -24 95
6 58 5 62 -24 91 -27 27 -37 31 -84 30 -29 0 -60 -3 -68 -6z m48 -645 c17 -17
15 -89 -4 -116 -8 -12 -23 -22 -33 -22 -23 0 -116 99 -105 110 36 35 119 51
142 28z m181 -226 c13 -25 -1 -44 -30 -40 -41 5 -34 57 8 58 7 0 17 -8 22 -18z
m-305 -70 c27 -9 51 -22 53 -28 3 -10 -21 -44 -100 -136 -27 -31 -73 -46 -96
-31 -42 25 -67 139 -38 175 32 41 97 48 181 20z m220 -232 c18 -7 26 -17 26
-34 0 -25 -16 -36 -55 -36 -57 0 -75 35 -33 64 26 19 29 19 62 6z"/>
<path d="M1525 4893 c-31 -8 -53 -32 -66 -72 -6 -20 -24 -60 -40 -88 -51 -93
-31 -143 59 -143 51 0 112 -23 112 -43 0 -20 -25 -39 -74 -57 -30 -12 -47 -26
-64 -58 -13 -23 -36 -49 -50 -56 -15 -8 -51 -43 -81 -77 l-53 -64 5 -100 c4
-55 13 -140 22 -190 23 -128 29 -247 16 -299 -8 -34 -8 -54 3 -92 20 -69 37
-275 39 -454 l2 -152 -37 -30 c-37 -29 -46 -55 -32 -92 10 -27 29 -18 62 29
17 25 39 45 47 45 24 0 55 -77 55 -136 0 -46 -5 -57 -40 -100 -64 -78 -52
-114 39 -114 33 0 84 -10 130 -26 79 -28 106 -30 284 -26 93 2 110 5 128 23
23 23 23 67 -1 80 -8 5 -34 13 -58 19 -45 12 -62 32 -46 58 21 32 51 32 114
-1 54 -27 66 -38 91 -89 34 -66 58 -83 150 -97 101 -17 106 -16 164 42 29 28
65 61 79 72 17 13 29 33 32 56 l6 36 -73 7 c-41 3 -98 9 -127 12 -49 6 -56 4
-83 -22 -24 -23 -40 -29 -90 -32 -69 -5 -79 2 -79 56 0 18 -9 60 -20 92 l-20
60 41 76 c23 42 48 78 56 81 42 16 83 -38 104 -136 19 -88 32 -56 35 83 2 97
-1 137 -12 167 -15 35 -14 42 1 84 20 50 15 113 -11 153 l-15 23 -34 -25 c-63
-49 -98 -26 -109 73 -5 55 -27 91 -54 91 -8 0 -30 17 -50 38 -19 20 -53 46
-76 57 -33 16 -42 26 -44 52 -2 23 3 35 20 47 48 34 131 7 205 -66 l52 -52
118 28 c157 37 166 39 170 53 7 19 -34 34 -110 40 -40 3 -85 12 -101 20 -31
16 -31 13 -10 162 l6 44 -62 -6 c-57 -5 -65 -9 -105 -50 -36 -37 -53 -47 -101
-57 -79 -17 -221 -9 -255 13 -39 26 -54 63 -53 128 1 48 5 64 24 84 46 49 146
19 197 -60 37 -56 119 -60 147 -7 8 15 41 54 73 87 33 34 64 77 72 100 17 51
26 62 76 93 22 14 48 36 59 49 10 13 36 35 58 49 50 32 58 52 29 76 -26 20
-77 23 -132 8 -38 -11 -124 -100 -146 -152 -7 -16 -28 -38 -48 -49 -20 -12
-45 -39 -55 -60 -27 -52 -51 -63 -119 -55 -81 10 -98 24 -112 98 -11 53 -19
69 -56 105 -37 36 -43 48 -43 83 0 36 4 42 40 65 68 43 96 122 74 212 -8 32
-16 75 -19 95 -7 46 -24 64 -73 78 -37 10 -120 12 -157 3z m144 -1202 c18 -22
47 -45 66 -51 101 -33 44 -100 -86 -100 -57 0 -67 11 -75 81 -12 110 36 145
95 70z m-130 -234 c7 -9 10 -73 8 -188 -2 -152 -4 -179 -21 -204 l-19 -29 -18
23 c-17 21 -19 40 -16 196 2 153 5 176 21 194 22 24 30 26 45 8z m203 -154 c9
-10 28 -42 43 -72 l27 -54 -23 -49 c-27 -57 -22 -71 32 -101 40 -22 49 -34 49
-63 0 -36 -27 -49 -103 -50 -94 -2 -110 -21 -86 -107 8 -32 6 -47 -18 -107
-21 -55 -32 -72 -52 -77 -40 -10 -52 17 -35 81 10 38 11 62 4 87 -6 18 -10 55
-10 81 0 41 4 50 31 70 55 41 70 84 72 218 2 100 5 121 21 139 23 26 29 26 48
4z m421 -54 c34 -18 67 -51 67 -68 0 -8 -14 -30 -32 -48 -40 -41 -78 -44 -107
-7 -31 39 -27 77 10 108 35 30 33 30 62 15z"/>
<path d="M2220 3995 c0 -8 5 -15 10 -15 6 0 10 7 10 15 0 8 -4 15 -10 15 -5 0
-10 -7 -10 -15z"/>
<path d="M1147 3196 c-8 -21 1 -43 20 -51 22 -8 35 8 31 36 -4 28 -42 39 -51
15z"/>
<path d="M2574 3023 c-34 -6 -53 -35 -66 -96 -10 -47 -9 -67 7 -134 11 -43 19
-79 20 -80 0 0 21 -4 46 -8 l46 -7 7 37 c4 20 16 54 27 74 11 21 22 67 25 102
5 54 3 68 -12 86 -20 22 -63 34 -100 26z"/>
<path d="M290 2350 c-14 -4 -85 -8 -157 -9 l-133 -1 0 -143 c0 -143 0 -144 24
-155 34 -15 49 -44 76 -140 16 -57 30 -88 44 -97 12 -8 73 -21 137 -29 63 -9
153 -24 199 -36 103 -24 275 -27 376 -5 38 8 121 24 184 35 141 26 165 34 212
67 21 14 68 34 105 44 49 14 75 27 93 49 32 37 67 50 136 50 60 0 75 -6 140
-55 24 -18 67 -41 96 -50 29 -10 79 -33 110 -53 47 -28 75 -37 150 -47 51 -7
129 -23 173 -35 72 -20 94 -22 240 -17 90 3 188 12 225 21 36 9 101 21 145 27
123 18 150 27 193 63 23 19 65 40 100 50 33 9 76 30 97 46 20 16 56 37 81 46
52 20 98 11 155 -31 34 -25 51 -34 149 -79 30 -15 69 -35 87 -46 18 -12 76
-29 140 -40 59 -10 140 -26 178 -35 39 -9 139 -19 223 -22 136 -5 159 -3 220
15 37 12 119 28 181 37 183 25 207 49 222 222 5 60 16 136 25 171 19 75 10
105 -43 152 l-35 31 -116 -4 c-175 -5 -212 -33 -212 -160 0 -55 -3 -67 -26
-88 -25 -24 -29 -24 -211 -24 l-185 0 -24 28 c-21 24 -24 38 -24 102 0 68 -3
78 -29 107 l-28 32 -137 3 c-88 3 -143 0 -157 -7 -35 -19 -62 -94 -54 -149 6
-42 3 -52 -18 -77 l-25 -29 -188 -3 c-230 -4 -251 -1 -269 40 -7 17 -10 48 -8
67 6 47 -13 117 -39 143 -19 19 -28 20 -109 13 -59 -4 -107 -2 -145 6 -57 13
-57 13 -80 -16 -28 -36 -44 -95 -42 -163 2 -42 -3 -57 -20 -74 -20 -20 -34
-22 -174 -26 -232 -6 -278 12 -278 114 0 69 -23 111 -79 142 -37 21 -50 23
-161 19 -91 -3 -126 -9 -146 -21 -35 -23 -57 -80 -51 -129 7 -53 -9 -93 -42
-107 -31 -13 -342 -18 -377 -7 -31 11 -44 49 -44 130 0 54 -5 80 -19 104 l-20
32 -155 -1 c-145 -1 -157 -3 -175 -22 -33 -35 -52 -93 -45 -132 9 -51 -11 -91
-55 -106 -40 -14 -346 -18 -393 -5 -47 13 -58 33 -58 103 0 67 -15 110 -53
152 -21 23 -35 25 -77 12z"/>
<path d="M1555 1665 c-5 -2 -26 -6 -45 -9 -20 -3 -56 -23 -82 -44 -29 -25 -69
-45 -107 -56 -33 -9 -75 -29 -92 -43 -37 -32 -101 -50 -229 -64 -52 -6 -129
-19 -170 -29 -91 -21 -236 -18 -354 6 -107 22 -213 24 -226 4 -16 -24 -12 -37
22 -76 18 -20 42 -62 53 -92 12 -32 31 -63 47 -75 74 -55 590 -42 681 17 12 8
65 26 117 40 118 30 142 40 160 61 7 9 37 28 64 42 28 14 66 37 85 50 18 15
52 28 75 30 34 4 50 -1 96 -31 30 -20 62 -36 72 -36 9 0 39 -20 66 -43 40 -36
61 -46 113 -56 35 -7 98 -28 139 -46 122 -53 168 -59 445 -59 275 1 322 7 397
55 40 26 153 57 214 59 7 0 34 18 60 40 27 22 71 47 99 56 27 9 65 30 83 45
41 36 53 36 96 -1 18 -17 50 -37 69 -45 20 -8 51 -28 69 -44 49 -42 88 -59
164 -71 38 -6 94 -24 126 -40 32 -16 86 -34 120 -39 101 -16 324 -24 442 -16
93 6 112 10 128 29 88 100 117 139 128 170 23 72 -6 105 -83 93 -17 -3 -75
-12 -127 -21 -128 -21 -280 -20 -425 3 -66 11 -142 22 -170 26 -69 9 -114 24
-155 52 -19 13 -66 33 -105 45 -38 11 -85 32 -104 47 -78 61 -97 71 -131 71
-42 0 -127 -39 -156 -72 -12 -13 -48 -32 -80 -42 -33 -10 -95 -36 -139 -57
-61 -30 -101 -41 -165 -49 -47 -6 -118 -18 -159 -27 -96 -20 -327 -13 -521 17
-117 18 -147 26 -225 65 -49 24 -116 52 -149 60 -32 9 -69 27 -83 41 -13 13
-34 31 -46 38 -23 14 -84 27 -102 21z"/>
<path d="M3318 1091 c-18 -15 -64 -44 -103 -64 -38 -19 -79 -44 -89 -56 -20
-22 -59 -35 -141 -46 -27 -4 -80 -20 -117 -36 -102 -45 -260 -63 -473 -55
-157 6 -177 9 -270 41 -55 19 -135 43 -179 55 -55 14 -90 31 -118 54 -22 20
-63 40 -96 50 -32 9 -73 27 -92 41 -44 32 -82 32 -144 -4 -28 -15 -69 -34 -91
-41 -22 -7 -56 -24 -75 -39 -51 -40 -67 -47 -152 -64 -42 -9 -102 -30 -135
-47 -51 -26 -73 -31 -180 -39 -126 -10 -175 -24 -181 -52 -3 -16 125 -131 175
-157 26 -14 101 -15 203 -2 114 15 127 19 170 55 24 20 66 41 102 51 39 11 76
31 104 55 31 27 59 41 100 49 76 16 111 7 163 -40 30 -27 66 -47 109 -60 35
-11 83 -34 107 -51 34 -25 64 -34 151 -50 60 -10 126 -19 148 -19 21 0 64 -6
95 -14 84 -21 199 -28 261 -16 30 6 91 15 135 20 153 16 247 39 329 79 45 22
98 42 119 46 36 7 50 15 137 82 61 47 96 50 167 19 32 -15 71 -40 87 -56 15
-16 46 -34 69 -40 82 -22 106 -31 142 -60 37 -30 47 -33 155 -50 134 -21 225
-6 258 41 7 11 32 31 53 45 22 14 45 36 51 49 10 22 8 29 -12 50 -21 23 -31
25 -109 25 -90 0 -138 10 -208 41 -23 11 -76 26 -116 33 -92 18 -140 38 -182
75 -34 30 -39 32 -112 51 -23 6 -60 26 -83 45 -52 44 -88 45 -132 6z"/>
<path d="M1570 532 c-52 -7 -96 -26 -135 -60 -24 -21 -68 -44 -105 -56 -61
-20 -65 -23 -65 -51 0 -26 7 -33 74 -67 82 -42 101 -44 181 -23 76 20 83 20
130 -20 23 -19 59 -39 80 -45 22 -6 52 -21 67 -34 46 -39 84 -53 178 -70 95
-16 136 -38 145 -77 l6 -24 320 -3 321 -2 11 24 c16 35 59 55 181 82 71 16
124 35 161 57 30 19 80 44 110 56 30 13 69 36 85 51 17 16 42 32 57 35 23 6
33 0 68 -35 47 -48 65 -48 136 -2 23 15 63 39 89 55 63 37 57 55 -30 87 -39
15 -83 40 -100 57 -19 19 -53 37 -90 48 -85 24 -160 8 -226 -51 -37 -33 -61
-45 -106 -54 -65 -14 -86 -23 -125 -55 -30 -25 -137 -47 -316 -66 -132 -13
-365 -7 -536 15 -104 13 -126 19 -175 49 -31 19 -87 44 -126 56 -47 14 -91 37
-134 70 -65 50 -87 59 -131 53z"/>
</g>
</svg>
